<svg 
   viewBox="0 0 300 300" 
   version="1.1" 
   xmlns="http://www.w3.org/2000/svg">
   <path
      d="m 18.021559,286.04369 c -3.870475,-1.336 -6.853012,-3.33198 -10.1616889,-6.80044 C -0.52578138,270.45265 0,279.49966 0,144 0,7.5373526 -0.60263214,17.317916 8.3576418,8.3576418 17.317916,-0.60263214 7.5373526,0 144,0 280.46265,0 270.68208,-0.60263214 279.64236,8.3576418 288.60263,17.317916 288,7.5373526 288,144 c 0,136.51006 0.62231,126.50812 -8.43478,135.56522 -9.06147,9.06147 1.00753,8.43938 -135.99672,8.40213 C 28.451456,287.93605 23.274077,287.85673 18.021559,286.04369 Z M 97,165.47639 V 108.95277 L 79.75,109.22639 62.5,109.5 l -0.259774,55 c -0.142876,30.25 -0.0445,55.5625 0.218615,56.25 0.356819,0.93234 4.806474,1.25 17.509774,1.25 H 97 Z M 154.04391,193.75 c 0.0627,-40.32829 1.13089,-46.73055 8.76893,-52.55645 2.99247,-2.2825 4.68781,-2.73946 11.10927,-2.9944 9.12986,-0.36247 12.77285,1.42947 16.28755,8.01162 2.24574,4.20571 2.29633,4.98578 2.59816,40.06207 l 0.30782,35.77284 17.69218,-0.27284 L 228.5,221.5 228.15586,183 c -0.36753,-41.11633 -0.99296,-47.65775 -5.48118,-57.32825 -4.67417,-10.07117 -12.52413,-15.54642 -26.32387,-18.36059 -14.44458,-2.94567 -29.01996,1.10921 -38.3246,10.66193 l -4.93395,5.0655 -0.29613,-6.76929 L 152.5,109.5 H 136 119.5 l -0.25833,56.25 -0.25832,56.25 H 136.49167 154 l 0.0439,-28.25 z M 87.768471,92.452272 C 102.82478,86.161347 104.50251,65.17198 90.635569,56.583333 81.608917,50.992574 69.020975,53.477879 63.408486,61.958922 56.110477,72.986958 59.642226,86.288166 71.5,92.433035 c 3.845393,1.992738 11.523489,2.001817 16.268471,0.01924 z" />
</svg>